# xmcd
#
# Track frame offsets:
#	150
#	18553
#	33247
#	48628
#	71882
#	85793
#	103168
#	117516
#	133531
#	144313
#	165528
#	178884
#	194809
#	218281
#	233818
#
# Disc length: 3301 seconds
#
# Revision: 0
# Processed by: cddbd v1.5.2PL0 Copyright (c) Steve Scherf et al.
# Submitted via: EasyCDDAExtractor 12.0.1.1
#
DISCID=d90ce30f
DTITLE=Various Artist - Μεγάλα Ερωτικά
DYEAR=2012
DGENRE=
TTITLE0=Λευτέρης Πανταζής - Το ωραιότερο πλάσμα
TTITLE1=Λίτσα Γιαγκούση - Απιστία
TTITLE2=Νατάσα Θεοδωρίδου - Αν υπάρχει παράδεισος
TTITLE3=Άννα Βίσση - Συγχαρητήρια
TTITLE4=Καίτη Γαρμπή - Αρχίζω πόλεμο
TTITLE5=Νίκος Κουρκούλης - Πίστεψε με
TTITLE6=Άντζελα Δημητρίου - Δυο φωνές
TTITLE7=Πέγκυ Ζήνα - Κράτησε με
TTITLE8=Σταμάτης Γονίδης - Μη ρωτάς το γιατί
TTITLE9=Διονύσης Σχοινιάς - Μου ταιριάζεις
TTITLE10=Στέλλα Κονιτοπούλου - Ένα σπίρτο αναμμένο
TTITLE11=Θ'ανος Καλλίρης - Πόσο μου λείπεις
TTITLE12=Στέφανος Κορκολής - Σκόνη και θρύψαλα
TTITLE13=Σοφία Στρατή - Αφού σ'αγαπάω
TTITLE14=Χρήστος Δάντης - Κάποιος σ'αγαπάει
EXTD=
EXTT0=
EXTT1=
EXTT2=
EXTT3=
EXTT4=
EXTT5=
EXTT6=
EXTT7=
EXTT8=
EXTT9=
EXTT10=
EXTT11=
EXTT12=
EXTT13=
EXTT14=
PLAYORDER=
